<svg width="32" height="32" viewBox="0 0 32 32" fill="none" xmlns="http://www.w3.org/2000/svg">
<path d="M19.6 8.40004C19.3557 8.64928 19.2188 8.98437 19.2188 9.33338C19.2188 9.68238 19.3557 10.0175 19.6 10.2667L21.7333 12.4C21.9825 12.6443 22.3176 12.7812 22.6666 12.7812C23.0156 12.7812 23.3507 12.6443 23.6 12.4L27.7413 8.26004C28.168 7.83071 28.892 7.96671 29.052 8.55071C29.4548 10.0159 29.4321 11.5655 28.9863 13.0182C28.5406 14.4709 27.6904 15.7666 26.5352 16.7537C25.3799 17.7408 23.9674 18.3785 22.463 18.5921C20.9585 18.8058 19.4244 18.5865 18.04 17.96L7.4933 28.5067C6.96287 29.037 6.24352 29.3348 5.4935 29.3347C4.74348 29.3345 4.02423 29.0365 3.49397 28.506C2.96372 27.9756 2.66589 27.2563 2.66602 26.5062C2.66614 25.7562 2.96421 25.037 3.49464 24.5067L14.0413 13.96C13.4148 12.5757 13.1956 11.0415 13.4092 9.53704C13.6229 8.0326 14.2605 6.62011 15.2477 5.46486C16.2348 4.30962 17.5305 3.45939 18.9832 3.01368C20.4359 2.56797 21.9855 2.5452 23.4506 2.94804C24.0346 3.10804 24.1706 3.83071 23.7426 4.26004L19.6 8.40004Z" stroke="white" stroke-width="2.66667" stroke-linecap="round" stroke-linejoin="round"/>
</svg>
