<svg width="32" height="32" viewBox="0 0 32 32" fill="none" xmlns="http://www.w3.org/2000/svg">
<path d="M24.6667 28C27.244 28 29.3333 25.9107 29.3333 23.3333C29.3333 20.756 27.244 18.6667 24.6667 18.6667C22.0893 18.6667 20 20.756 20 23.3333C20 25.9107 22.0893 28 24.6667 28Z" stroke="white" stroke-width="2.66667" stroke-linecap="round" stroke-linejoin="round"/>
<path d="M7.33341 28C9.91074 28 12.0001 25.9107 12.0001 23.3333C12.0001 20.756 9.91074 18.6667 7.33341 18.6667C4.75609 18.6667 2.66675 20.756 2.66675 23.3333C2.66675 25.9107 4.75609 28 7.33341 28Z" stroke="white" stroke-width="2.66667" stroke-linecap="round" stroke-linejoin="round"/>
<path d="M20.0001 7.99999C20.7365 7.99999 21.3334 7.40304 21.3334 6.66666C21.3334 5.93028 20.7365 5.33333 20.0001 5.33333C19.2637 5.33333 18.6667 5.93028 18.6667 6.66666C18.6667 7.40304 19.2637 7.99999 20.0001 7.99999Z" stroke="white" stroke-width="2.66667" stroke-linecap="round" stroke-linejoin="round"/>
<path d="M16 23.3333V18.6667L12 14.6667L17.3333 10.6667L20 14.6667H22.6667" stroke="white" stroke-width="2.66667" stroke-linecap="round" stroke-linejoin="round"/>
</svg>
