<svg width="16" height="16" viewBox="0 0 16 16" fill="none" xmlns="http://www.w3.org/2000/svg">
<path d="M9.2215 11.0453C9.35918 11.1085 9.5143 11.1229 9.66129 11.0862C9.80828 11.0495 9.93839 10.9638 10.0302 10.8433L10.2668 10.5333C10.391 10.3677 10.5521 10.2333 10.7372 10.1407C10.9224 10.0481 11.1265 9.99992 11.3335 9.99992H13.3335C13.6871 9.99992 14.0263 10.1404 14.2763 10.3904C14.5264 10.6405 14.6668 10.9796 14.6668 11.3333V13.3333C14.6668 13.6869 14.5264 14.026 14.2763 14.2761C14.0263 14.5261 13.6871 14.6666 13.3335 14.6666C10.1509 14.6666 7.09865 13.4023 4.84821 11.1519C2.59778 8.90143 1.3335 5.84918 1.3335 2.66659C1.3335 2.31296 1.47397 1.97382 1.72402 1.72378C1.97407 1.47373 2.31321 1.33325 2.66683 1.33325H4.66683C5.02045 1.33325 5.35959 1.47373 5.60964 1.72378C5.85969 1.97382 6.00016 2.31296 6.00016 2.66659V4.66659C6.00016 4.87358 5.95197 5.07773 5.8594 5.26287C5.76683 5.44801 5.63242 5.60906 5.46683 5.73325L5.15483 5.96725C5.03244 6.0607 4.94618 6.19364 4.91069 6.34349C4.8752 6.49333 4.89268 6.65084 4.96016 6.78925C5.87128 8.63983 7.36978 10.1364 9.2215 11.0453Z" stroke="#8B0000" stroke-width="1.33333" stroke-linecap="round" stroke-linejoin="round"/>
</svg>
