<?xml version="1.0" standalone="no"?>
<!DOCTYPE svg PUBLIC "-//W3C//DTD SVG 20010904//EN"
 "http://www.w3.org/TR/2001/REC-SVG-20010904/DTD/svg10.dtd">
<svg version="1.0" xmlns="http://www.w3.org/2000/svg"
 width="852.000000pt" height="852.000000pt" viewBox="0 0 852.000000 852.000000"
 preserveAspectRatio="xMidYMid meet">

<g transform="translate(0.000000,852.000000) scale(0.100000,-0.100000)"
fill="#000000" stroke="none">
<path d="M4255 7891 c-17 -4 -65 -25 -107 -46 -108 -53 -187 -58 -299 -20 -99
33 -200 33 -246 -1 -78 -59 -109 -139 -83 -220 44 -136 208 -172 352 -76 35
22 52 26 147 30 101 4 111 3 165 -23 149 -70 306 13 306 162 0 28 -5 64 -11
80 -29 78 -141 135 -224 114z m85 -121 c11 -6 22 -26 26 -47 6 -32 3 -40 -20
-60 -63 -54 -116 -34 -116 44 0 40 3 45 33 58 39 17 53 18 77 5z m-584 -47
c17 -22 18 -105 2 -121 -7 -7 -27 -12 -44 -12 -26 0 -39 8 -59 35 -32 41 -27
68 18 96 40 24 66 24 83 2z"/>
<path d="M4830 7841 c-54 -11 -98 -41 -131 -90 -49 -74 -39 -181 23 -237 49
-46 87 -57 157 -49 182 22 288 0 383 -81 59 -51 107 -74 153 -74 70 0 156 56
181 117 29 69 11 153 -44 208 -46 46 -82 55 -215 52 -110 -2 -129 1 -195 25
-39 14 -89 41 -109 58 -37 33 -133 81 -156 79 -7 -1 -28 -4 -47 -8z m94 -137
c31 -31 13 -94 -35 -123 -39 -24 -61 -16 -84 30 -22 42 -16 81 15 96 35 18 85
16 104 -3z m519 -139 c29 -20 37 -32 37 -56 0 -38 -14 -65 -41 -80 -46 -24
-111 38 -94 89 7 24 43 72 53 72 4 0 24 -11 45 -25z"/>
<path d="M4501 7765 c18 -40 20 -55 11 -94 -5 -25 -12 -53 -16 -62 -6 -13 2
-17 46 -23 29 -4 67 -9 84 -12 l32 -6 -9 49 c-8 41 -6 58 11 96 11 25 25 49
30 52 25 15 3 23 -77 28 -49 3 -98 8 -110 12 l-23 7 21 -47z"/>
<path d="M3435 7724 c-33 -12 -75 -23 -92 -23 -38 -1 -43 -19 -14 -45 28 -25
51 -99 44 -141 -6 -39 -4 -40 52 -20 22 8 59 14 83 15 l43 0 -20 26 c-29 37
-47 124 -32 164 20 58 22 58 -64 24z"/>
<path d="M3076 7705 c-16 -9 -59 -43 -95 -78 -91 -85 -194 -137 -272 -137
-116 0 -192 -43 -234 -134 -18 -37 -41 -62 -102 -107 -43 -32 -86 -59 -95 -59
-27 0 -21 -13 15 -31 41 -20 72 -66 81 -118 7 -45 15 -50 40 -23 9 11 41 31
72 47 l55 28 -34 36 c-43 45 -57 72 -56 108 l1 28 7 -25 c27 -89 82 -138 164
-147 94 -10 134 15 230 140 18 24 53 48 102 72 66 31 83 35 155 35 86 0 138
15 178 53 93 87 78 250 -28 305 -53 26 -140 30 -184 7z m134 -127 c11 -18 20
-48 20 -66 0 -27 -6 -35 -34 -49 -29 -13 -40 -14 -64 -4 -51 21 -70 93 -29
112 12 5 33 16 47 24 35 20 38 19 60 -17z m-510 -235 c17 -22 21 -37 17 -72
-5 -47 -18 -61 -57 -61 -45 0 -70 26 -70 73 0 83 64 118 110 60z"/>
<path d="M5626 7511 c8 -36 -20 -122 -46 -146 -29 -26 -24 -42 15 -49 19 -4
57 -22 85 -41 l50 -34 0 31 c0 52 22 109 57 146 39 41 39 42 14 42 -24 0 -83
25 -132 56 -49 30 -50 30 -43 -5z"/>
<path d="M5820 7434 c-38 -32 -80 -113 -80 -152 0 -38 26 -100 53 -130 32 -35
82 -57 168 -76 104 -23 203 -84 245 -151 74 -117 127 -154 219 -155 63 0 120
34 159 93 59 92 14 229 -90 273 -17 7 -62 18 -99 24 -99 16 -196 82 -263 180
-21 30 -58 70 -81 88 -40 30 -48 32 -121 32 -70 0 -82 -3 -110 -26z m164 -106
c16 -23 21 -83 10 -112 -4 -12 -20 -16 -53 -16 -44 0 -48 2 -64 35 -23 48 -21
61 8 90 31 32 78 33 99 3z m494 -310 c18 -18 14 -52 -11 -89 -44 -66 -117 -44
-117 36 0 53 13 65 70 65 25 0 51 -5 58 -12z"/>
<path d="M2090 7167 c-51 -16 -102 -74 -129 -147 -34 -90 -92 -144 -227 -211
-130 -65 -159 -97 -176 -190 -6 -35 -18 -75 -26 -89 -45 -73 -68 -102 -101
-122 l-36 -23 55 -12 c44 -10 63 -20 95 -55 22 -24 45 -53 51 -63 10 -18 12
-16 29 19 10 22 34 54 53 73 19 19 32 36 30 37 -1 2 -21 12 -42 22 -46 21
-101 73 -109 103 -8 32 5 25 35 -19 40 -58 97 -84 172 -77 88 8 128 41 183
149 50 98 120 171 200 208 155 72 153 70 183 123 45 79 40 168 -13 226 -50 54
-145 74 -227 48z m130 -139 c28 -46 25 -65 -12 -88 -45 -28 -78 -22 -105 19
-31 46 -29 66 10 85 52 26 84 21 107 -16z m-433 -356 c6 -4 19 -26 28 -50 17
-41 17 -44 0 -62 -19 -21 -88 -28 -114 -11 -17 11 -17 97 0 117 12 15 66 19
86 6z"/>
<path d="M4855 7006 c-24 -24 -26 -32 -23 -92 4 -85 19 -98 142 -119 49 -8 91
-17 94 -19 4 -5 -35 -167 -43 -175 -3 -3 -79 3 -168 13 -89 10 -279 28 -422
41 -143 13 -327 31 -410 39 -82 9 -228 23 -324 31 -96 8 -175 16 -177 17 -1 2
2 27 7 56 9 58 0 96 -26 106 -9 3 -40 6 -68 6 -29 0 -94 7 -146 15 -125 19
-294 -1 -383 -45 -107 -53 -125 -66 -181 -123 -100 -105 -129 -185 -100 -276
31 -99 127 -161 175 -113 19 18 20 25 10 64 -14 56 0 114 40 162 37 45 82 68
173 90 73 17 258 26 271 14 7 -7 -13 -54 -114 -268 -27 -58 -73 -157 -102
-220 -28 -63 -57 -120 -63 -127 -9 -9 -29 -8 -82 2 -141 28 -387 10 -563 -41
-274 -80 -509 -269 -704 -567 -105 -159 -164 -496 -124 -698 43 -212 104 -329
245 -469 106 -105 200 -165 330 -211 247 -87 546 -55 776 84 206 126 357 290
471 515 43 83 48 90 140 155 l96 69 34 -40 c35 -41 101 -72 154 -72 43 0 161
42 225 80 33 19 93 67 133 106 40 39 75 67 78 63 2 -5 -2 -38 -11 -74 -8 -37
-15 -72 -15 -80 0 -9 38 8 103 47 117 69 384 245 392 259 18 29 25 -3 24 -118
0 -128 18 -233 64 -359 84 -230 290 -449 532 -565 147 -70 192 -80 400 -86
154 -4 194 -2 275 15 253 53 460 185 641 410 87 108 111 149 104 175 -4 15 -3
18 3 9 10 -15 45 50 61 115 5 21 17 67 27 102 13 51 14 68 5 84 -7 10 -10 22
-7 25 3 3 6 0 6 -7 0 -7 5 -9 10 -6 12 8 13 212 1 219 -5 3 -12 -11 -16 -32
-7 -34 -8 -35 -15 -12 -3 14 -3 27 2 28 4 2 7 20 7 40 -1 37 -1 37 -8 7 -6
-26 -8 -27 -13 -9 -3 11 1 29 8 39 14 19 17 16 27 -30 4 -15 5 -13 6 7 2 46
-73 270 -117 353 -42 77 -135 196 -149 191 -7 -3 -10 1 -7 8 6 16 -90 106
-162 152 -142 91 -238 130 -382 155 -144 24 -213 24 -332 -2 -91 -19 -96 -19
-108 -2 -114 160 -281 349 -347 394 -31 20 -35 29 -32 54 8 57 39 190 46 198
4 4 59 0 123 -9 174 -24 220 -4 234 99 7 49 -14 102 -43 111 -21 6 -477 54
-600 63 -78 5 -82 5 -108 -21z m-1140 -466 c39 -6 153 -19 255 -30 102 -11
284 -31 405 -44 121 -14 303 -33 405 -41 102 -9 189 -20 194 -25 5 -5 -12 -90
-37 -197 -25 -103 -69 -289 -97 -413 -70 -307 -65 -293 -99 -313 -15 -9 -71
-48 -124 -87 -52 -38 -100 -70 -106 -70 -16 0 -14 18 15 143 42 181 73 332 69
335 -3 3 -254 -85 -262 -92 -1 -1 -18 -62 -37 -136 -42 -168 -66 -232 -115
-306 -69 -108 -199 -204 -275 -204 -36 0 -76 36 -76 69 0 9 22 83 49 166 72
218 131 410 131 424 0 8 -10 11 -27 7 -16 -3 -66 -10 -113 -16 -47 -6 -95 -14
-107 -17 -26 -6 -35 -30 -93 -262 -45 -177 -79 -259 -132 -307 -39 -36 -98
-78 -102 -73 -2 2 -11 39 -20 83 -18 86 -44 152 -82 207 l-25 37 60 57 c88 84
115 145 116 260 0 83 -3 96 -33 158 -36 72 -98 129 -174 161 -21 8 -38 19 -38
24 0 6 18 50 41 99 23 48 52 113 66 143 14 30 47 102 74 158 27 57 49 108 49
114 0 12 132 6 245 -12z m1649 -453 c15 -31 32 -57 37 -57 28 0 -1 -32 -73
-80 -45 -30 -134 -105 -198 -167 -65 -62 -119 -110 -122 -107 -3 3 5 53 18
112 13 59 35 159 49 222 15 63 35 157 46 208 10 52 22 99 26 105 11 17 184
-171 217 -236z m569 -136 c23 -5 67 -14 97 -20 59 -13 170 -54 207 -78 12 -8
28 -11 34 -7 7 4 9 3 6 -3 -4 -6 5 -19 19 -28 15 -9 59 -46 100 -81 40 -35 74
-60 77 -56 2 4 2 1 1 -6 -2 -7 14 -35 35 -64 38 -49 111 -187 111 -209 0 -5 5
-7 12 -3 7 4 8 3 4 -4 -4 -7 1 -42 11 -79 13 -50 18 -103 17 -203 0 -124 -3
-143 -32 -231 -26 -78 -115 -249 -141 -269 -3 -3 -23 -26 -44 -53 -40 -50
-161 -146 -244 -195 -106 -63 -281 -102 -455 -102 -126 0 -218 17 -311 59
-187 84 -358 256 -435 436 -50 118 -81 205 -74 209 4 2 46 24 95 50 48 25 108
61 134 81 54 41 57 39 68 -50 12 -107 75 -177 195 -220 66 -24 221 -24 290 -1
86 29 163 73 210 121 l43 44 -33 50 c-17 28 -35 51 -39 51 -4 0 -18 -14 -30
-31 -28 -38 -108 -74 -196 -90 -93 -16 -127 -7 -170 45 -48 59 -46 76 7 76 49
0 155 25 217 52 56 24 167 136 206 208 25 46 30 66 30 126 0 62 -4 76 -29 113
-50 72 -133 99 -250 81 -118 -18 -184 -61 -353 -229 -151 -150 -189 -181 -304
-244 -83 -47 -99 -47 -99 -4 0 70 18 100 117 197 54 52 152 151 218 220 188
196 311 282 470 326 88 25 144 29 208 15z m-3040 -47 c32 -6 37 -10 31 -28 -8
-29 -79 -197 -114 -271 -309 -657 -307 -653 -295 -725 9 -54 69 -119 147 -158
117 -59 287 -88 401 -68 l47 8 -22 -42 c-13 -23 -72 -90 -133 -148 -175 -169
-321 -232 -542 -233 -337 -3 -607 204 -676 516 -58 267 1 537 163 739 180 224
405 363 659 406 57 10 283 12 334 4z m348 -83 c87 -90 85 -177 -5 -268 -33
-33 -51 -43 -90 -48 -58 -9 -86 -34 -86 -77 0 -24 14 -47 60 -99 33 -37 67
-84 75 -103 34 -81 8 -260 -44 -310 -36 -34 -154 -60 -230 -51 -57 7 -141 39
-153 58 -26 40 10 139 187 512 21 44 55 116 75 160 117 249 130 275 147 275 9
0 38 -22 64 -49z m3294 11 c-3 -3 -11 0 -18 7 -9 10 -8 11 6 5 10 -3 15 -9 12
-12z m146 -175 l12 -22 -23 20 -23 20 7 -20 c5 -14 4 -17 -4 -9 -12 12 -3 47
11 38 5 -3 14 -15 20 -27z m-903 -117 c66 -40 38 -122 -80 -237 -56 -55 -147
-97 -189 -88 -23 5 -29 11 -24 23 4 10 15 40 26 67 26 68 109 177 166 219 27
20 53 36 58 36 6 0 25 -9 43 -20z m973 -54 c5 3 14 -7 19 -21 15 -38 11 -45
-5 -10 l-14 30 -1 -34 c0 -43 -6 -38 -13 14 -3 22 -3 34 0 27 2 -6 9 -10 14
-6z m-124 -48 c-3 -8 -6 -5 -6 6 -1 11 2 17 5 13 3 -3 4 -12 1 -19z m97 -54
c9 -24 2 -26 -12 -4 -7 11 -8 20 -3 20 5 0 12 -7 15 -16z m-11 -57 c6 -16 -3
-67 -12 -67 -4 0 -8 11 -9 26 -1 14 2 23 8 19 6 -3 10 -1 10 4 0 6 -4 11 -10
11 -5 0 -10 5 -10 10 0 15 17 12 23 -3z m-35 -52 c0 -16 -2 -15 -8 5 -11 34
-11 60 0 35 5 -11 8 -29 8 -40z m159 -207 c-2 -24 -4 -7 -4 37 0 44 2 63 4 43
2 -21 2 -57 0 -80z m-156 -411 c-10 -9 -11 -8 -5 6 3 10 9 15 12 12 3 -3 0
-11 -7 -18z"/>
<path d="M3900 6174 c-50 -22 -79 -52 -106 -109 -35 -74 -32 -126 9 -171 26
-28 44 -38 80 -44 149 -22 274 143 210 277 -28 59 -116 80 -193 47z"/>
<path d="M6617 6881 c-7 -32 -72 -99 -113 -116 l-27 -11 28 -18 c26 -17 45
-37 95 -98 l18 -22 20 40 c21 40 83 104 103 104 5 0 -11 -19 -35 -42 -71 -69
-84 -149 -38 -239 25 -49 34 -58 111 -98 77 -40 87 -49 131 -118 31 -47 53
-94 61 -131 7 -31 20 -73 30 -94 20 -40 82 -96 117 -104 12 -4 22 -10 22 -14
0 -5 13 -23 30 -41 16 -18 39 -53 52 -78 13 -25 24 -48 26 -50 1 -3 17 9 35
26 53 50 79 63 125 63 l43 0 -21 30 c-12 17 -30 53 -39 81 -24 66 -34 75 -51
45 -21 -41 -84 -78 -137 -82 l-48 -4 50 16 c106 34 154 100 155 210 0 54 -4
66 -34 105 -21 29 -58 58 -105 84 -44 24 -88 57 -110 85 -47 56 -55 71 -70
142 -14 67 -74 156 -127 189 -26 15 -52 22 -90 22 -30 0 -52 2 -50 5 3 2 -17
22 -44 43 -26 21 -56 52 -66 69 -23 38 -40 38 -47 1z m267 -262 c20 -16 26
-29 26 -58 0 -33 -4 -39 -35 -54 -44 -21 -89 -22 -104 -3 -7 8 -11 34 -9 58 3
38 7 45 38 60 45 23 52 22 84 -3z m342 -434 c11 -17 14 -35 10 -60 -10 -50
-31 -67 -79 -63 -82 6 -86 91 -7 130 46 24 56 23 76 -7z"/>
<path d="M1340 6355 c-19 -9 -46 -26 -59 -38 -35 -33 -71 -115 -71 -167 -1
-93 -62 -195 -174 -292 -95 -81 -121 -132 -113 -218 6 -74 36 -118 100 -149
77 -37 170 -19 232 45 38 40 53 80 61 160 13 125 77 225 196 306 13 9 39 44
57 78 28 51 32 70 28 106 -13 122 -155 215 -257 169z m93 -124 c40 -16 43
-108 4 -133 -26 -16 -67 -8 -92 19 -27 30 -31 56 -15 97 8 21 16 26 44 26 19
0 46 -4 59 -9z m-275 -511 c58 -35 32 -111 -45 -126 -25 -5 -34 -1 -52 23 -24
30 -24 80 0 109 16 20 58 17 97 -6z"/>
<path d="M7376 5815 c-76 -27 -126 -98 -126 -179 0 -64 22 -112 80 -171 79
-81 94 -126 95 -281 0 -127 1 -132 30 -179 40 -64 101 -98 166 -92 111 10 178
83 182 195 1 55 -2 66 -33 109 -124 175 -140 213 -140 343 0 118 -12 161 -57
211 -51 56 -119 72 -197 44z m116 -122 c27 -24 24 -78 -7 -109 -20 -20 -33
-25 -68 -22 l-42 3 -3 54 c-2 39 1 58 14 72 21 24 81 25 106 2z m187 -545 c11
-20 13 -35 6 -65 -10 -37 -11 -38 -59 -41 -59 -4 -86 16 -86 64 0 69 106 102
139 42z"/>
<path d="M925 5498 c-4 -24 -18 -67 -31 -97 -13 -29 -24 -54 -24 -55 0 0 29
-1 64 -1 56 0 71 -4 110 -32 48 -34 56 -33 56 6 0 14 9 46 20 70 27 58 26 61
-16 61 -49 0 -129 36 -144 66 -19 34 -27 30 -35 -18z"/>
<path d="M882 5330 c-76 -12 -142 -98 -142 -186 0 -27 5 -74 12 -105 9 -46 9
-72 -1 -126 -18 -88 -47 -166 -75 -201 -56 -66 -60 -174 -10 -244 43 -61 85
-80 165 -76 76 4 120 30 161 95 20 33 23 48 19 113 -6 133 -5 244 2 281 4 20
26 65 49 100 51 79 62 117 53 185 -14 115 -110 183 -233 164z m90 -147 c30
-35 38 -61 28 -87 -9 -24 -14 -26 -70 -26 -61 0 -61 0 -76 36 -22 52 -15 78
21 85 54 12 82 9 97 -8z m-84 -556 c22 -17 14 -62 -17 -91 -25 -24 -35 -27
-64 -22 -40 7 -52 19 -62 58 -5 21 -1 33 18 52 21 21 31 24 68 19 24 -3 50
-10 57 -16z"/>
<path d="M4585 5049 c-44 -33 -160 -112 -257 -176 l-177 -115 -25 -77 c-24
-76 -111 -376 -126 -439 -10 -39 -30 -53 175 118 82 69 218 181 301 248 83 67
170 138 193 159 l41 38 -15 58 c-9 32 -17 101 -18 153 -1 52 -4 94 -7 93 -3 0
-41 -27 -85 -60z"/>
<path d="M7690 4913 c-39 -21 -53 -23 -104 -18 l-59 6 17 -26 c9 -14 20 -55
23 -90 3 -36 7 -65 9 -65 2 0 19 11 39 24 43 30 99 40 144 27 33 -10 33 -10
27 17 -3 15 -10 55 -17 90 -6 35 -16 61 -23 61 -6 -1 -31 -13 -56 -26z"/>
<path d="M7638 4736 c-39 -17 -77 -55 -100 -100 -28 -55 -21 -134 18 -212 26
-54 29 -68 28 -154 -1 -85 -4 -102 -34 -165 -43 -93 -41 -182 4 -235 21 -24
25 -95 10 -168 -8 -37 -14 -68 -14 -70 0 -2 19 0 43 3 52 8 114 -7 151 -36 15
-12 29 -20 31 -18 2 2 6 50 10 107 8 107 5 114 -35 92 -28 -15 -109 0 -139 26
l-26 24 51 -22 c65 -26 126 -19 183 22 89 65 108 175 51 293 -32 66 -33 72
-27 155 6 81 29 175 48 197 13 14 10 147 -4 171 -26 45 -57 75 -91 89 -42 18
-120 18 -158 1z m132 -128 c24 -26 26 -65 4 -96 -12 -18 -25 -22 -64 -22 -41
0 -52 4 -65 24 -46 70 67 156 125 94z m-2 -568 c36 -22 36 -39 4 -88 -13 -19
-22 -22 -60 -20 -35 2 -49 9 -65 30 -51 69 40 127 121 78z"/>
<path d="M695 4379 c4 -11 7 -59 8 -107 0 -64 -4 -94 -16 -112 -24 -37 -57
-127 -57 -155 0 -13 20 -61 43 -107 51 -96 72 -182 63 -259 -3 -30 -9 -93 -12
-142 -6 -83 -5 -89 19 -126 44 -67 89 -94 156 -95 123 -2 201 72 201 189 0 54
-5 69 -42 130 -23 38 -47 89 -55 114 -18 60 -16 162 3 222 25 75 16 159 -22
206 -58 74 -152 101 -232 68 -31 -13 -35 -14 -22 -1 35 34 131 37 190 6 15 -8
16 -2 13 73 -6 105 -7 111 -32 97 -28 -15 -132 -12 -161 5 -37 21 -53 19 -45
-6z m158 -290 c25 -11 57 -57 57 -82 0 -16 -79 -67 -103 -67 -20 0 -67 56 -67
80 0 10 19 32 42 49 49 36 41 34 71 20z m111 -565 c40 -40 1 -124 -58 -124
-40 0 -78 37 -78 75 0 35 13 47 64 56 24 3 46 7 50 8 4 0 14 -6 22 -15z"/>
<path d="M2475 3821 c-77 -28 -113 -49 -157 -93 -52 -52 -78 -112 -85 -196
-11 -132 36 -232 191 -406 190 -213 205 -238 186 -317 -18 -74 -60 -125 -117
-142 -84 -25 -206 4 -281 68 -38 32 -57 65 -66 118 -4 20 -11 37 -15 37 -29 0
-111 -172 -111 -231 0 -44 167 -139 290 -165 221 -47 462 55 554 234 23 44 33
142 24 217 -12 85 -51 144 -205 308 -139 147 -183 214 -183 276 1 48 32 115
64 136 59 39 183 4 270 -76 l55 -50 12 43 c26 94 27 106 12 127 -22 32 -131
102 -181 117 -65 20 -196 17 -257 -5z"/>
<path d="M4209 3830 c-51 -13 -190 -111 -236 -168 -143 -172 -235 -396 -263
-638 -20 -174 22 -344 109 -433 82 -85 199 -127 313 -111 104 15 174 56 281
163 96 96 149 180 211 340 62 157 89 390 62 528 -22 105 -48 159 -108 221 -69
71 -142 102 -248 105 -47 1 -101 -2 -121 -7z m138 -223 c44 -48 64 -122 70
-253 10 -206 -47 -481 -122 -589 -65 -96 -162 -120 -227 -57 -76 71 -98 275
-58 514 32 191 79 315 142 378 41 42 64 51 118 46 35 -3 51 -11 77 -39z"/>
<path d="M3052 3818 c-9 -13 -42 -175 -42 -210 0 -23 14 -23 48 2 32 23 219
57 233 43 6 -6 -1 -56 -16 -129 -14 -65 -48 -231 -75 -369 -27 -137 -60 -305
-74 -373 -24 -123 -57 -208 -96 -249 -11 -12 -20 -25 -20 -28 0 -3 84 -5 186
-5 l187 0 -8 33 c-25 113 -27 102 78 625 l102 503 60 -6 c33 -4 87 -16 119
-27 32 -10 62 -16 66 -11 11 11 49 201 42 208 -3 3 -180 5 -392 5 -298 0 -390
-3 -398 -12z"/>
<path d="M4890 3808 c1 -7 7 -24 15 -38 8 -14 14 -39 15 -55 0 -26 -78 -425
-109 -555 -6 -25 -26 -117 -46 -205 -74 -342 -84 -374 -135 -420 -11 -10 -20
-22 -20 -27 0 -4 84 -8 186 -8 173 0 186 1 179 17 -18 48 -16 141 4 228 12 50
27 118 33 152 l11 62 44 7 c24 3 46 5 48 2 2 -2 13 -45 24 -95 11 -51 34 -139
50 -198 36 -121 36 -128 16 -145 -8 -7 -15 -16 -15 -21 0 -5 81 -9 180 -9 99
0 180 2 180 5 0 2 -22 37 -49 77 -50 76 -95 199 -125 348 -23 107 -23 104 40
129 130 49 231 144 263 246 61 197 19 379 -105 451 -101 59 -133 64 -421 64
-204 0 -263 -3 -263 -12z m456 -172 c17 -9 39 -25 48 -35 45 -49 58 -157 31
-249 -21 -71 -105 -161 -171 -184 -48 -17 -177 -28 -188 -17 -3 3 1 37 8 75 8
38 24 116 35 174 21 105 48 223 57 249 6 18 136 9 180 -13z"/>
<path d="M5926 3811 c-4 -5 3 -30 14 -56 l20 -48 -35 -176 c-77 -378 -167
-800 -186 -871 -11 -41 -31 -94 -45 -117 l-25 -43 360 0 359 0 10 28 c53 141
81 222 76 222 -3 0 -19 -9 -34 -20 -15 -11 -55 -27 -88 -35 -66 -17 -322 -36
-335 -25 -7 6 74 415 84 424 2 2 69 0 149 -4 80 -5 146 -7 148 -6 3 4 52 184
52 193 0 3 -9 -2 -21 -13 -18 -16 -40 -19 -160 -22 -104 -3 -139 0 -139 9 0 6
16 90 36 186 19 97 33 182 30 190 -3 8 -2 11 3 8 5 -3 11 7 13 22 3 27 5 28
48 25 89 -6 206 -33 266 -61 l61 -28 22 100 c13 55 25 106 28 113 4 12 -55 14
-350 14 -203 0 -358 -4 -361 -9z"/>
<path d="M7555 3599 c-41 -12 -82 -56 -103 -113 -15 -39 -17 -59 -9 -123 l9
-76 -41 -81 c-22 -45 -61 -103 -86 -131 -26 -27 -55 -68 -65 -90 -21 -43 -26
-118 -11 -158 14 -36 -3 -88 -45 -139 -19 -24 -37 -50 -40 -60 -3 -9 -25 -21
-49 -27 -29 -7 -54 -23 -79 -51 -42 -47 -53 -71 -72 -157 -14 -66 -63 -151
-110 -194 -16 -14 -61 -44 -100 -67 -57 -33 -75 -50 -97 -90 -32 -60 -35 -117
-8 -170 20 -38 61 -81 96 -100 17 -10 18 -11 3 -12 -26 0 -96 67 -110 106 -15
42 -23 43 -43 4 -8 -16 -37 -47 -63 -68 l-48 -38 35 -22 c41 -26 81 -82 81
-112 0 -28 7 -26 60 23 112 101 121 107 164 107 97 1 173 67 207 183 40 136
91 205 204 278 55 36 76 57 99 98 25 46 28 61 24 117 -4 58 -7 68 -42 103 -22
22 -58 45 -84 54 -29 10 -38 16 -25 16 41 2 98 -29 122 -64 24 -36 41 -45 41
-22 0 7 16 42 35 77 39 74 42 90 18 90 -61 0 -153 53 -153 88 0 12 4 11 16 -7
9 -13 35 -32 58 -42 73 -33 146 -23 206 28 60 52 77 92 83 203 5 111 31 189
83 253 74 91 92 127 99 191 10 93 -24 160 -98 191 -40 16 -114 18 -162 4z
m127 -126 c27 -31 29 -56 8 -91 -17 -27 -26 -32 -58 -32 -49 0 -82 23 -82 59
0 64 93 108 132 64z m-218 -507 c44 -18 57 -41 44 -78 -12 -33 -35 -48 -75
-48 -28 0 -73 31 -73 50 0 4 -2 15 -5 22 -8 20 32 68 56 68 11 0 35 -6 53 -14z
m-265 -502 c22 -8 42 -21 44 -28 12 -30 -36 -116 -63 -116 -13 0 -73 45 -84
62 -15 24 3 70 34 85 31 16 22 16 69 -3z m-320 -469 c37 -42 38 -51 9 -82 -43
-46 -122 -21 -134 43 -5 24 -1 37 15 53 33 33 73 27 110 -14z"/>
<path d="M1031 3294 c-13 -13 -42 -29 -64 -35 -39 -10 -54 -9 -104 6 l-22 7
24 -59 c14 -32 25 -74 25 -93 0 -52 12 -65 36 -39 29 33 93 59 147 59 26 0 47
2 47 4 0 2 -8 24 -19 48 -10 24 -22 63 -26 86 -4 23 -10 42 -13 41 -4 -1 -18
-12 -31 -25z"/>
<path d="M994 3101 c-95 -44 -137 -156 -91 -246 17 -34 54 -74 104 -112 26
-20 55 -46 63 -57 33 -46 73 -153 81 -220 11 -90 16 -103 47 -149 43 -64 133
-98 199 -77 88 29 143 101 143 187 -1 85 -34 135 -151 224 -62 47 -119 182
-116 274 2 53 -41 127 -94 162 -52 34 -128 40 -185 14z m114 -115 c15 -8 35
-28 45 -45 l18 -30 -40 -25 c-64 -41 -84 -42 -114 -7 -23 27 -25 35 -15 61 10
31 42 60 66 60 7 0 25 -6 40 -14z m304 -500 c21 -31 -6 -110 -42 -121 -66 -21
-127 55 -87 109 24 32 111 41 129 12z"/>
<path d="M1520 2311 c-15 -37 -76 -80 -124 -88 -43 -7 -44 -12 -10 -44 15 -13
44 -50 65 -82 l38 -58 15 28 c22 42 76 89 119 103 l38 12 -35 38 c-19 22 -44
57 -56 80 -24 48 -34 50 -50 11z"/>
<path d="M1638 2156 c-95 -34 -133 -92 -126 -192 5 -87 39 -134 127 -175 36
-17 82 -38 101 -47 60 -28 155 -133 175 -192 31 -93 112 -159 196 -160 46 0
118 25 136 48 30 39 53 93 53 129 0 83 -72 181 -145 199 -16 4 -47 15 -68 26
-42 21 -146 121 -164 159 -6 13 -25 54 -41 90 -31 68 -60 97 -121 117 -43 15
-77 14 -123 -2z m122 -126 c26 -26 25 -48 -5 -93 -22 -32 -31 -37 -65 -37 -31
0 -43 5 -56 25 -47 72 65 166 126 105z m395 -385 c45 -44 24 -115 -39 -131
-39 -9 -60 -1 -75 30 -20 41 -4 84 39 107 44 24 46 24 75 -6z"/>
<path d="M6325 1741 c-46 -21 -72 -48 -108 -111 -29 -50 -70 -91 -137 -138
-42 -29 -73 -39 -191 -57 -55 -8 -113 -56 -140 -114 -13 -28 -28 -50 -33 -51
-5 0 -30 -13 -56 -29 -27 -16 -67 -36 -89 -43 l-41 -14 21 -25 c35 -40 59 -96
59 -139 0 -44 5 -47 37 -25 12 9 39 22 60 29 21 8 51 19 66 25 l28 11 -35 36
c-36 37 -56 87 -55 134 0 15 10 -3 23 -45 37 -109 105 -149 215 -126 74 15
125 51 161 114 16 29 44 67 62 84 45 43 158 103 194 103 155 0 258 143 206
285 -26 72 -85 115 -155 115 -29 0 -70 -9 -92 -19z m114 -120 c10 -10 21 -35
25 -56 9 -44 -10 -70 -56 -80 -37 -9 -74 23 -84 70 -13 65 69 112 115 66z
m-459 -337 c27 -46 23 -84 -11 -103 -50 -28 -119 12 -119 71 0 44 25 68 71 68
32 0 40 -5 59 -36z"/>
<path d="M2313 1537 c-1 -46 -38 -103 -84 -128 -42 -25 -43 -34 -2 -42 27 -5
93 -40 141 -74 22 -15 22 -15 22 18 0 47 39 111 77 129 34 16 44 40 16 40 -18
0 -139 65 -148 80 -12 19 -21 10 -22 -23z"/>
<path d="M2488 1435 c-55 -37 -80 -84 -79 -153 0 -137 59 -191 218 -202 78 -5
102 -11 165 -43 41 -20 108 -67 153 -107 44 -38 95 -75 114 -81 41 -14 125 -5
157 16 16 10 30 13 42 7 9 -5 40 -12 67 -15 28 -3 71 -14 96 -25 l47 -20 -5
57 c-6 58 8 102 45 144 8 9 13 19 11 20 -2 2 -38 8 -79 14 -41 6 -82 12 -90
14 -12 3 -15 -6 -15 -41 -1 -34 -9 -57 -33 -93 -18 -26 -37 -47 -43 -47 -6 0
1 15 14 33 51 68 51 146 1 219 -45 64 -84 81 -200 88 -92 6 -109 11 -188 49
-68 33 -91 50 -111 81 -64 101 -203 142 -287 85z m150 -91 c19 -5 22 -13 22
-54 0 -80 -51 -121 -111 -90 -15 8 -19 21 -19 59 0 59 16 77 80 90 3 0 15 -2
28 -5z m534 -261 c28 -25 22 -61 -16 -99 -19 -19 -38 -34 -44 -34 -5 0 -24 14
-42 30 -28 26 -32 35 -26 63 3 17 14 38 23 45 24 17 83 15 105 -5z"/>
<path d="M5303 1194 c-17 -9 -49 -30 -70 -48 -81 -70 -185 -102 -288 -90 -125
14 -168 10 -217 -19 -25 -14 -53 -37 -62 -51 -9 -15 -22 -23 -30 -20 -8 3 -36
-2 -63 -11 -32 -11 -62 -14 -90 -10 -47 7 -49 5 -29 -28 27 -43 28 -115 2
-178 -6 -13 5 -15 86 -11 122 5 122 4 99 44 -27 47 -34 109 -17 149 14 32 14
32 9 -31 -3 -50 0 -73 14 -100 21 -41 99 -97 150 -106 53 -10 130 18 191 70
28 24 73 51 99 59 137 42 132 41 192 29 130 -27 222 0 273 79 29 44 44 113 34
147 -13 40 -67 102 -105 122 -49 24 -132 26 -178 4z m136 -120 c12 -15 21 -37
21 -49 0 -30 -44 -75 -73 -75 -31 0 -77 36 -77 60 0 76 86 118 129 64z m-565
-127 c12 -9 20 -31 23 -64 5 -45 3 -52 -22 -72 -33 -25 -60 -21 -94 17 -18 20
-22 33 -17 60 10 64 64 92 110 59z"/>
<path d="M3582 1049 c-69 -35 -109 -109 -98 -186 13 -98 88 -163 188 -163 31
0 75 7 98 15 28 10 81 15 155 15 113 0 113 0 190 -41 98 -52 153 -59 222 -29
100 43 141 156 93 255 -47 97 -148 126 -291 86 -125 -35 -228 -24 -335 35 -75
42 -154 47 -222 13z m147 -103 c19 -21 22 -31 16 -66 -13 -75 -91 -95 -128
-33 -21 38 -17 60 20 97 32 32 63 33 92 2z m576 -60 c9 -13 18 -39 21 -58 7
-39 -15 -64 -64 -74 -70 -14 -115 101 -54 138 40 25 78 23 97 -6z"/>
</g>
</svg>
