<svg width="33" height="33" viewBox="0 0 33 33" fill="none" xmlns="http://www.w3.org/2000/svg">
<path d="M25.5 28.5C25.5 26.1131 24.5518 23.8239 22.864 22.136C21.1761 20.4482 18.8869 19.5 16.5 19.5M16.5 19.5C14.1131 19.5 11.8239 20.4482 10.136 22.136C8.44821 23.8239 7.5 26.1131 7.5 28.5M16.5 19.5C19.8137 19.5 22.5 16.8137 22.5 13.5C22.5 10.1863 19.8137 7.5 16.5 7.5C13.1863 7.5 10.5 10.1863 10.5 13.5C10.5 16.8137 13.1863 19.5 16.5 19.5ZM31.5 16.5C31.5 24.7843 24.7843 31.5 16.5 31.5C8.21573 31.5 1.5 24.7843 1.5 16.5C1.5 8.21573 8.21573 1.5 16.5 1.5C24.7843 1.5 31.5 8.21573 31.5 16.5Z" stroke="black" stroke-width="3" stroke-linecap="round" stroke-linejoin="round"/>
</svg>
