<svg width="31" height="31" viewBox="0 0 31 31" fill="none" xmlns="http://www.w3.org/2000/svg">
<path d="M9.3086 31C8.45531 31 7.7251 30.6967 7.11798 30.0901C6.51085 29.4835 6.20677 28.7535 6.20573 27.9C6.2047 27.0464 6.50878 26.3169 7.11798 25.7114C7.72717 25.1058 8.45738 24.802 9.3086 24.8C10.1598 24.7979 10.8905 25.1017 11.5008 25.7114C12.111 26.321 12.4146 27.0506 12.4115 27.9C12.4084 28.7494 12.1048 29.4794 11.5008 30.0901C10.8968 30.7008 10.166 31.0041 9.3086 31ZM24.8229 31C23.9696 31 23.2394 30.6967 22.6323 30.0901C22.0252 29.4835 21.7211 28.7535 21.7201 27.9C21.719 27.0464 22.0231 26.3169 22.6323 25.7114C23.2415 25.1058 23.9717 24.802 24.8229 24.8C25.6742 24.7979 26.4049 25.1017 27.0151 25.7114C27.6253 26.321 27.9289 27.0506 27.9258 27.9C27.9227 28.7494 27.6191 29.4794 27.0151 30.0901C26.4111 30.7008 25.6804 31.0041 24.8229 31ZM7.98988 6.19999L11.7133 13.95H22.5734L26.8398 6.19999H7.98988ZM6.51602 3.1H29.3997C29.9944 3.1 30.4469 3.36505 30.7572 3.89514C31.0675 4.42524 31.0804 4.96103 30.796 5.50249L25.2884 15.4225C25.0039 15.9391 24.6228 16.3396 24.145 16.6237C23.6671 16.9079 23.1432 17.05 22.5734 17.05H11.0152L9.3086 20.15H27.9258V23.25H9.3086C8.14503 23.25 7.26588 22.74 6.67116 21.7201C6.07645 20.7002 6.05059 19.686 6.59359 18.6775L8.68803 14.88L3.10287 3.1H0V0H5.04216L6.51602 3.1Z" fill="black"/>
</svg>
